#!OML:ASF F:\VICON\USERDATA\INSTALL\rory3\rory3.ASF
:FULLY-SPECIFIED
:DEGREES
474
root -5.45431 15.8327 22.4178 206.493 112.59 -168.68
lowerback -8.64445 0.159701 -6.4272
upperback -8.29539 0.811497 -3.62968
thorax -3.85832 0.76248 -0.154007
lowerneck -7.02292 -12.0075 -13.785
upperneck 28.4462 -18.6213 14.6196
head 13.5663 -8.05502 5.22292
rclavicle 1.84373e-014 -3.73715e-014
rhumerus -34.2029 -25.1819 -57.2956
rradius 41.6149
rwrist -4.681
rhand -32.8341 50.3925
rfingers 7.12502
rthumb -6.05401 20.499
lclavicle 1.84373e-014 -3.73715e-014
lhumerus -226.901 -191.834 214.18
lradius 62.6972
lwrist -20.297
lhand -33.5292 6.35143
lfingers 7.12502
lthumb -6.72506 36.2246
rfemur 106.261 -155.619 -151.028
rtibia 47.9396
rfoot -26.7684 -47.3597
rtoes 48.4389
lfemur -25.0532 10.0124 -31.1182
ltibia 55.1851
lfoot -29.4331 21.0678
ltoes -36.8233
475
root -5.36598 15.8113 22.5247 204.512 113.824 -170.575
lowerback -9.14894 0.201267 -6.23633
upperback -7.98734 0.900732 -3.13819
thorax -3.25757 0.781528 0.273867
lowerneck -7.14789 -11.7535 -13.138
upperneck 28.3206 -18.0788 13.802
head 13.2508 -7.84193 4.88196
rclavicle -5.76476e-015 -3.97569e-014
rhumerus -34.3903 -25.1797 -56.4576
rradius 39.2916
rwrist -3.21597
rhand -32.6928 50.3064
rfingers 7.12502
rthumb -5.91763 20.4091
lclavicle -5.76476e-015 -3.97569e-014
lhumerus -226.878 -193.288 214.45
lradius 60.9045
lwrist -21.7913
lhand -33.4874 4.7569
lfingers 7.12502
lthumb -6.6847 34.6314
rfemur 104.848 -153.914 -146.791
rtibia 48.2691
rfoot -18.5633 -46.1284
rtoes 46.2071
lfemur -24.5604 10.2701 -30.2413
ltibia 55.7282
lfoot -29.253 20.4728
ltoes -36.9104
476
root -5.27855 15.7842 22.6345 203.885 115.36 -171.222
lowerback -9.09679 0.507131 -5.84185
upperback -8.30883 1.26704 -3.46732
thorax -3.62693 0.955491 -0.276157
lowerneck -6.872 -11.5785 -12.7163
upperneck 28.7675 -17.9054 13.5999
head 13.2772 -7.73921 4.80093
rclavicle -5.79457e-014 2.06736e-014
rhumerus -35.9253 -25.2169 -55.7365
rradius 37.0895
rwrist -2.48515
rhand -32.6784 50.1482
rfingers 7.12502
rthumb -5.90374 20.2505
lclavicle -5.79457e-014 2.06736e-014
lhumerus -226.526 -192.914 214.37
lradius 59.41
lwrist -22.5105
lhand -33.095 4.36372
lfingers 7.12502
lthumb -6.30591 34.2499
rfemur 103.411 -152.821 -143.372
rtibia 48.6319
rfoot -13.5616 -44.1946
rtoes 44.7121
lfemur -24.2823 10.7186 -30.0747
ltibia 56.1566
lfoot -28.0851 21.1347
ltoes -39.251
477
root -5.19275 15.761 22.7471 203.655 117.11 -171.27
lowerback -8.98852 0.78574 -5.68688
upperback -8.49637 1.60741 -3.94844
thorax -3.88146 1.11516 -0.854279
lowerneck -6.83407 -11.3658 -11.9932
upperneck 29.2146 -17.7064 13.3849
head 13.316 -7.58228 4.65729
rclavicle 3.93594e-014 -4.77083e-015
rhumerus -37.0639 -25.3946 -55.409
rradius 35.0751
rwrist -1.94897
rhand -32.9703 49.7453
rfingers 7.12502
rthumb -6.18559 19.8556
lclavicle 3.93594e-014 -4.77083e-015
lhumerus -226.105 -192.662 214.035
lradius 58.0238
lwrist -22.7278
lhand -32.7649 3.40798
lfingers 7.12502
lthumb -5.9872 33.3034
rfemur 102.81 -152.56 -141.495
rtibia 48.9732
rfoot -11.0671 -42.5843
rtoes 43.7609
lfemur -23.7355 11.1677 -30.224
ltibia 56.4314
lfoot -27.2823 21.5647
ltoes -40.6269
478
root -5.10447 15.7476 22.859 202.865 118.597 -171.725
lowerback -8.94518 0.851074 -5.57148
upperback -8.42429 1.67561 -3.98239
thorax -3.82489 1.13547 -0.948375
lowerneck -7.14287 -11.0426 -11.5549
upperneck 29.7 -17.2263 13.0003
head 13.4121 -7.33664 4.52229
rclavicle 1.95803e-014 -2.46493e-014
rhumerus -37.5662 -25.5779 -54.9954
rradius 32.991
rwrist -0.42735
rhand -33.4941 49.8706
rfingers 7.12502
rthumb -6.69118 19.9963
lclavicle 1.95803e-014 -2.46493e-014
lhumerus -226.376 -193.246 213.617
lradius 56.8874
lwrist -23.1519
lhand -32.0831 0.650221
lfingers 7.12502
lthumb -5.32899 30.5632
rfemur 102.969 -152.54 -140.311
rtibia 49.3341
rfoot -9.84786 -41.1906
rtoes 42.6359
lfemur -22.8348 11.6262 -30.018
ltibia 56.5202
lfoot -26.7936 21.3781
ltoes -40.6393
479
root -5.01807 15.7468 22.984 201.323 119.791 -172.99
lowerback -8.98859 0.643954 -5.39804
upperback -8.30819 1.3869 -3.50923
thorax -3.6745 0.982335 -0.560878
lowerneck -7.45432 -10.5036 -11.5035
upperneck 30.1927 -16.3599 12.629
head 13.4971 -6.96716 4.52454
rclavicle 7.08667e-014 5.56597e-015
rhumerus -37.6257 -25.1714 -54.7297
rradius 30.8798
rwrist 1.2041
rhand -33.515 49.8512
rfingers 7.12502
rthumb -6.71141 19.9775
lclavicle 7.08667e-014 5.56597e-015
lhumerus -227.411 -193.72 213.378
lradius 56.102
lwrist -23.5388
lhand -31.4184 -1.32421
lfingers 7.12502
lthumb -4.68718 28.6039
rfemur 103.744 -152.944 -139.373
rtibia 49.6906
rfoot -9.43943 -40.2581
rtoes 41.0434
lfemur -21.8571 12.0784 -29.1418
ltibia 56.5393
lfoot -26.2903 20.8989
ltoes -40.3054
480
root -4.92771 15.7457 23.1245 201.459 121.33 -172.172
lowerback -8.98161 0.305369 -6.45407
upperback -8.17141 0.996013 -3.34557
thorax -3.55573 0.831814 0.177037
lowerneck -7.70793 -9.94047 -11.2143
upperneck 30.6528 -15.4746 12.1782
head 13.5252 -6.57759 4.45859
rclavicle -6.44062e-014 2.62396e-014
rhumerus -37.7325 -24.5664 -54.7375
rradius 28.9724
rwrist 2.07012
rhand -32.6041 49.3531
rfingers 7.12502
rthumb -5.83195 19.4534
lclavicle -6.44062e-014 2.62396e-014
lhumerus -228.444 -193.975 212.972
lradius 55.3193
lwrist -23.747
lhand -31.5357 -2.08679
lfingers 7.12502
lthumb -4.80044 27.8388
rfemur 104.619 -153.302 -139.889
rtibia 50.2296
rfoot -9.34363 -39.5406
rtoes 39.8276
lfemur -20.4181 12.5916 -29.3087
ltibia 56.2734
lfoot -25.6093 20.2367
ltoes -39.781
481
root -4.82481 15.7323 23.2341 202.016 122.633 -171.27
lowerback -9.3379 -0.0277824 -6.98916
upperback -8.07523 0.622191 -3.41647
thorax -3.25154 0.656874 0.385257
lowerneck -7.92808 -9.48115 -10.7629
upperneck 30.956 -14.7975 11.8355
head 13.5151 -6.25575 4.36528
rclavicle -2.73329e-014 -2.78299e-014
rhumerus -38.0253 -24.6145 -54.5451
rradius 27.2586
rwrist 2.97391
rhand -32.4358 49.9292
rfingers 7.12502
rthumb -5.66947 20.025
lclavicle -2.73329e-014 -2.78299e-014
lhumerus -229.218 -195.093 212.105
lradius 54.1633
lwrist -24.6681
lhand -31.88 -2.51672
lfingers 7.12502
lthumb -5.13286 27.4011
rfemur 104.752 -153.399 -140.251
rtibia 50.8269
rfoot -8.69969 -38.8655
rtoes 38.7292
lfemur -19.5439 12.5029 -29.8345
ltibia 56.0785
lfoot -24.2425 20.5224
ltoes -40.3779
482
root -4.71889 15.7277 23.3549 201.6 123.873 -171.327
lowerback -9.58507 -0.188292 -7.02636
upperback -8.02822 0.433553 -3.43053
thorax -3.05581 0.555201 0.382979
lowerneck -7.85377 -9.07232 -10.2723
upperneck 31.196 -14.2178 11.5091
head 13.4336 -5.98231 4.26332
rclavicle -6.85807e-015 -3.73715e-014
rhumerus -38.725 -25.035 -53.8543
rradius 25.6735
rwrist 4.40206
rhand -32.1563 49.4488
rfingers 7.12502
rthumb -5.39966 19.5376
lclavicle -6.85807e-015 -3.73715e-014
lhumerus -229.75 -196.199 211.264
lradius 52.9358
lwrist -25.8011
lhand -32.115 -2.5181
lfingers 7.12502
lthumb -5.35974 27.3941
rfemur 105.287 -153.57 -140.234
rtibia 51.5056
rfoot -9.23503 -37.9742
rtoes 38.8434
lfemur -18.3688 12.3995 -29.7522
ltibia 55.817
lfoot -23.3266 20.4476
ltoes -40.3268
483
root -4.6206 15.7114 23.4717 200.951 125.147 -171.763
lowerback -9.48623 -0.0583459 -6.53226
upperback -8.262 0.549499 -3.65437
thorax -3.35246 0.597321 -0.122211
lowerneck -7.45486 -8.78523 -9.70809
upperneck 31.4754 -13.8452 11.1725
head 13.3287 -5.79976 4.12244
rclavicle -1.00585e-013 -2.78299e-014
rhumerus -40.2422 -25.8796 -52.5937
rradius 24.1766
rwrist 6.1883
rhand -31.9261 49.0294
rfingers 7.12502
rthumb -5.17739 19.1127
lclavicle -1.00585e-013 -2.78299e-014
lhumerus -229.937 -196.25 210.764
lradius 51.9518
lwrist -26.1802
lhand -32.2827 -2.23833
lfingers 7.12502
lthumb -5.52169 27.6697
rfemur 105.805 -153.953 -139.844
rtibia 52.1742
rfoot -8.97945 -37.088
rtoes 36.9881
lfemur -17.4467 12.2822 -29.547
ltibia 55.6996
lfoot -22.4272 20.6364
ltoes -40.6553
484
root -4.5276 15.6866 23.5935 201.068 126.589 -171.479
lowerback -10.5048 -0.569775 -7.51501
upperback -7.70771 0.0588151 -2.97237
thorax -2.1996 0.359226 1.11414
lowerneck -8.29145 -8.22424 -9.856
upperneck 31.4857 -12.7531 10.5368
head 13.3109 -5.39388 4.03612
rclavicle 3.13086e-014 3.10104e-014
rhumerus -39.117 -26.4406 -51.7512
rradius 22.3506
rwrist 8.47176
rhand -32.0637 49.0188
rfingers 7.12502
rthumb -5.31028 19.1053
lclavicle 3.13086e-014 3.10104e-014
lhumerus -231.033 -198.371 210.687
lradius 50.9674
lwrist -26.2683
lhand -32.424 -1.41805
lfingers 7.12502
lthumb -5.65815 28.4864
rfemur 106.288 -154.884 -140.386
rtibia 52.8945
rfoot -10.346 -36.7013
rtoes 36.7744
lfemur -16.7533 12.1474 -29.9246
ltibia 55.5599
lfoot -20.9486 21.3929
ltoes -42.4148
485
root -4.43997 15.6559 23.721 201.711 128.086 -170.665
lowerback -10.7697 -0.590906 -8.09595
upperback -7.93696 0.100339 -3.22175
thorax -2.31336 0.410369 1.1762
lowerneck -7.9775 -7.9426 -9.61099
upperneck 31.7244 -12.3751 10.3715
head 13.2586 -5.22463 4.00973
rclavicle -2.00773e-014 -1.59028e-015
rhumerus -40.6649 -27.544 -50.074
rradius 20.9558
rwrist 10.7155
rhand -32.3071 49.3707
rfingers 7.12502
rthumb -5.54521 19.4632
lclavicle -2.00773e-014 -1.59028e-015
lhumerus -231.015 -198.655 210.568
lradius 49.7391
lwrist -26.4852
lhand -32.1512 -0.560005
lfingers 7.12502
lthumb -5.39471 29.3513
rfemur 106.8 -156.172 -141.637
rtibia 53.5827
rfoot -13.0433 -36.3282
rtoes 37.3975
lfemur -16.1479 11.7429 -30.6929
ltibia 55.4472
lfoot -20.1189 21.6503
ltoes -42.9518
486
root -4.35065 15.6255 23.8359 201.891 129.339 -170.335
lowerback -10.9637 -0.56769 -8.3123
upperback -8.03693 0.165753 -3.36115
thorax -2.32416 0.452202 1.15484
lowerneck -8.12873 -7.70134 -9.31753
upperneck 32.1582 -12.0105 10.0651
head 13.3814 -5.05103 3.90432
rclavicle 0 -2.62396e-014
rhumerus -42.1529 -28.5585 -48.3189
rradius 19.9237
rwrist 12.4944
rhand -32.209 49.2625
rfingers 7.12502
rthumb -5.45055 19.3526
lclavicle 0 -2.62396e-014
lhumerus -230.989 -199.883 209.749
lradius 48.1115
lwrist -27.9229
lhand -31.454 -2.34094
lfingers 7.12502
lthumb -4.72151 27.5864
rfemur 107.308 -157.098 -142.261
rtibia 54.1495
rfoot -14.6493 -35.791
rtoes 36.963
lfemur -15.4451 11.1473 -31.1114
ltibia 55.3392
lfoot -20.5466 20.9932
ltoes -40.6345
487
root -4.24791 15.608 23.9385 200.887 130.242 -171.352
lowerback -11.1271 -0.47918 -7.40093
upperback -8.00868 0.216145 -3.23867
thorax -2.1905 0.43397 0.784962
lowerneck -8.63637 -7.4395 -9.18857
upperneck 32.6887 -11.5754 9.77274
head 13.6339 -4.85345 3.83489
rclavicle -1.2921e-014 1.19271e-014
rhumerus -43.4478 -29.2178 -46.8408
rradius 19.3178
rwrist 13.8089
rhand -31.9521 48.6043
rfingers 7.12502
rthumb -5.20249 18.6881
lclavicle -1.2921e-014 1.19271e-014
lhumerus -230.985 -200.298 209.653
lradius 46.8266
lwrist -28.0136
lhand -31.3043 -2.94665
lfingers 7.12502
lthumb -4.57701 26.9839
rfemur 108.152 -157.632 -141.765
rtibia 54.5632
rfoot -15.4482 -35.3128
rtoes 36.2564
lfemur -14.5294 10.8656 -30.569
ltibia 55.1128
lfoot -19.8363 21.0065
ltoes -40.324
